<svg xmlns="http://www.w3.org/2000/svg" viewBox="0 0 512 512" width="40" height="40" fill="#ffdd23"><path d="M296 452c-5.52 0-10 4.48-10 10s4.48 10 10 10 10-4.48 10-10-4.48-10-10-10z"/><path d="M436 46h-30V30c0-16.542-13.458-30-30-30H136c-16.542 0-30 13.458-30 30v16H76c-16.542 0-30 13.458-30 30 0 65.057 30.442 112.867 79.828 126.178 16.93 37.265 43.698 68.944 77.674 91.835 7.826 5.273 12.498 14.3 12.498 24.147v55.099c-6.855 1.758-13.144 5.322-18.281 10.46C190.162 391.277 186 401.32 186 412h-10c-16.542 0-30 13.458-30 30v60c0 5.523 4.478 10 10 10h200c5.522 0 10-4.477 10-10v-60c0-16.542-13.458-30-30-30h-10c0-18.604-12.767-34.283-30-38.734V318.21c0-9.879 4.675-18.923 12.508-24.196 33.979-22.893 60.747-54.573 77.676-91.839C435.563 188.859 466 141.052 466 76c0-16.542-13.458-30-30-30zM66 76c0-5.514 4.486-10 10-10h30v44.7c0 22.795 3.453 45.117 10.27 66.614C84.447 161.551 66 125.146 66 76zm270 356c5.514 0 10 4.486 10 10v50H166v-50c0-5.514 4.486-10 10-10h160zm50-321.3c0 27.316-5.438 53.896-16.166 79-15.26 35.717-40.33 66.052-72.498 87.725-13.36 8.993-21.336 24.24-21.336 40.785V382c0 5.523 4.478 10 10 10 11.028 0 20 8.972 20 20H206c0-5.338 2.082-10.359 5.861-14.139 3.594-3.594 8.311-5.652 13.355-5.846.259.02.52.03.783.03 5.522 0 10-4.522 10-10.045v-63.84c0-16.51-7.971-31.737-21.322-40.733-32.171-21.674-57.241-52.009-72.503-87.729C131.442 164.603 126 138.024 126 110.7V30c0-5.514 4.486-10 10-10h240c5.514 0 10 4.486 10 10v80.7zm9.734 66.612C402.548 155.81 406 133.489 406 110.7V66h30c5.514 0 10 4.486 10 10 0 49.143-18.445 85.547-50.266 101.312z"/><path d="M335.139 118.16a9.994 9.994 0 00-8.073-6.806l-43.156-6.264-19.303-39.115a10 10 0 00-17.936 0l-19.303 39.115-43.155 6.264a10.001 10.001 0 00-5.543 17.058l31.234 30.44-7.372 42.987a10.001 10.001 0 0014.51 10.542l38.598-20.293 38.607 20.293a9.999 9.999 0 0014.508-10.544l-7.38-42.986 31.233-30.439a10 10 0 002.531-10.252zm-51.489 30.038a10 10 0 00-2.876 8.854l4.841 28.197-25.323-13.311a9.999 9.999 0 00-9.306.001l-25.315 13.31 4.836-28.199a10.001 10.001 0 00-2.877-8.852l-20.484-19.964 28.301-4.108a10 10 0 007.531-5.471l12.662-25.659 12.662 25.659a10 10 0 007.531 5.471l28.302 4.108-20.485 19.964zM256 452h-40c-5.522 0-10 4.477-10 10s4.478 10 10 10h40c5.522 0 10-4.477 10-10s-4.478-10-10-10zM410.01 482h5.575c-2.84-.563-4.75-.619-5.575 0z"/></svg>