<svg width="40" height="40" fill="#ff7c7c" viewBox="0 0 512 512" xmlns="http://www.w3.org/2000/svg"><path d="M32.379 138.753a14.942 14.942 0 009.528-3.281l.77-.615c6.476-5.166 7.539-14.604 2.373-21.079-5.165-6.478-14.604-7.538-21.08-2.374l-.792.633c-6.472 5.172-7.526 14.611-2.354 21.083a14.974 14.974 0 0011.555 5.633zM475.275 134.145l.763.604a14.936 14.936 0 009.145 3.253 14.974 14.974 0 0011.93-5.672c5.152-6.488 4.069-15.923-2.419-21.075l-.805-.638c-6.496-5.14-15.93-4.04-21.07 2.457s-4.04 15.93 2.456 21.071zM82.954 104.797a14.927 14.927 0 007.446-1.891l.83-.46c7.255-4.001 9.892-13.125 5.891-20.379-4.001-7.255-13.125-9.892-20.379-5.891l-.917.508c-7.241 4.024-9.849 13.157-5.824 20.398 2.713 4.879 7.744 7.655 12.953 7.715zM426.58 101.867l.844.465a14.946 14.946 0 007.065 1.871c5.345.062 10.552-2.744 13.317-7.75 4.005-7.252 1.373-16.377-5.879-20.383l-.911-.501c-7.263-3.987-16.381-1.33-20.367 5.932-3.988 7.262-1.332 16.38 5.931 20.366zM138.467 79.776c1.712.02 3.458-.256 5.166-.859l.895-.314c7.82-2.732 11.944-11.288 9.21-19.109-2.733-7.82-11.29-11.947-19.109-9.21l-.986.346c-7.812 2.759-11.908 11.327-9.149 19.139 2.156 6.102 7.856 9.936 13.973 10.007zM373.192 78.211l.902.313c1.578.549 3.185.821 4.769.839 6.266.072 12.156-3.819 14.334-10.063 2.728-7.823-1.401-16.375-9.223-19.103l-.993-.344c-7.832-2.706-16.37 1.454-19.073 9.285-2.704 7.831 1.453 16.37 9.284 19.073zM197.404 64.442c.904.01 1.823-.061 2.746-.221l.939-.16c8.167-1.386 13.665-9.13 12.279-17.298-1.385-8.167-9.129-13.662-17.298-12.279l-1.032.177c-8.163 1.411-13.637 9.173-12.225 17.336 1.252 7.239 7.499 12.363 14.591 12.445zM316.556 63.871l.983.163c.773.129 1.543.196 2.304.204 7.274.084 13.722-5.144 14.952-12.543 1.357-8.172-4.167-15.898-12.339-17.255l-.99-.165c-8.177-1.348-15.896 4.171-17.253 12.343-1.355 8.173 4.171 15.897 12.343 17.253zM258.111 59.203l.225.001.998-.002c8.285-.026 14.979-6.762 14.953-15.047-.026-8.21-6.641-14.858-14.823-14.952l-.224-.001-.999.002c-8.285.026-14.979 6.763-14.953 15.048.026 8.209 6.641 14.857 14.823 14.951zM509.78 249.98c-26.181-42.606-62.929-78.237-106.273-103.039-44.713-25.585-95.72-39.108-147.506-39.108s-102.793 13.523-147.506 39.108C65.15 171.743 28.401 207.374 2.22 249.98a14.998 14.998 0 000 15.705c26.181 42.606 62.929 78.237 106.273 103.039 44.713 25.585 95.72 39.108 147.506 39.108s102.793-13.523 147.506-39.108c43.344-24.802 80.093-60.433 106.273-103.039a14.993 14.993 0 00.002-15.705zm-353.747 7.853c0-55.122 44.845-99.968 99.967-99.968 55.123 0 99.968 44.846 99.968 99.968S311.123 357.8 256 357.8c-55.122 0-99.967-44.845-99.967-99.967zm-123.244 0c37.373-56.469 93.243-95.715 157.049-111.823-38.166 22.668-63.805 64.305-63.805 111.823 0 47.52 25.64 89.156 63.807 111.824-63.807-16.108-119.678-55.354-157.051-111.824zm289.372 111.824c38.167-22.667 63.807-64.304 63.807-111.824 0-47.518-25.639-89.155-63.805-111.823 63.806 16.108 119.675 55.354 157.048 111.823-37.373 56.469-93.244 95.716-157.05 111.824z"/><path d="M256 209.445c-26.681 0-48.388 21.707-48.388 48.388s21.707 48.388 48.388 48.388 48.388-21.707 48.388-48.388-21.707-48.388-48.388-48.388zm0 66.776c-10.139 0-18.388-8.249-18.388-18.388s8.249-18.388 18.388-18.388 18.388 8.249 18.388 18.388-8.249 18.388-18.388 18.388zM471.382 375.564l-.729.664c-6.125 5.578-6.567 15.065-.988 21.189a14.96 14.96 0 0011.094 4.899c3.605 0 7.222-1.292 10.097-3.911l.75-.684c6.119-5.585 6.552-15.072.967-21.191-5.586-6.117-15.072-6.55-21.191-.966zM424.709 409.151l-.837.472c-7.221 4.061-9.783 13.206-5.723 20.427 2.753 4.896 7.844 7.651 13.088 7.651 2.489 0 5.014-.621 7.338-1.928l.904-.511c7.21-4.078 9.75-13.23 5.671-20.44-4.079-7.211-13.231-9.752-20.441-5.671zM140.402 437.737l-.914-.267c-7.948-2.33-16.283 2.226-18.614 10.175-2.33 7.95 2.226 16.284 10.175 18.614l1.006.294a15.03 15.03 0 004.18.596c6.506 0 12.5-4.268 14.401-10.831 2.306-7.957-2.277-16.276-10.234-18.581zM371.601 432.882l-.894.306c-7.843 2.667-12.039 11.187-9.373 19.03 2.123 6.243 7.954 10.175 14.2 10.175 1.601 0 3.23-.258 4.831-.803l.999-.341c7.833-2.696 11.998-11.232 9.302-19.065-2.697-7.834-11.233-11.999-19.065-9.302zM197.834 449.631l-.993-.129c-8.211-1.059-15.738 4.732-16.803 12.948s4.732 15.738 12.948 16.804l.998.129c.653.085 1.302.126 1.944.126 7.427 0 13.879-5.515 14.857-13.077 1.062-8.216-4.736-15.738-12.951-16.801zM85.954 416.811l-.854-.42c-7.429-3.669-16.423-.616-20.089 6.813s-.616 16.423 6.813 20.089l.941.463a14.934 14.934 0 006.583 1.53c5.547 0 10.881-3.091 13.484-8.409 3.643-7.441.563-16.425-6.878-20.066zM256.471 452.782l-.954.018c-8.283.146-14.875 6.979-14.729 15.262.144 8.194 6.835 14.736 14.997 14.736l.27-.002 1.034-.02c8.282-.171 14.858-7.022 14.688-15.306-.171-8.283-6.983-14.836-15.306-14.688zM314.92 447.27l-.981.167c-8.167 1.39-13.661 9.137-12.271 17.303 1.245 7.316 7.59 12.486 14.77 12.486.836 0 1.683-.069 2.534-.215l.981-.167c8.167-1.39 13.661-9.137 12.271-17.303-1.391-8.168-9.142-13.671-17.304-12.271zM36.818 386.381l-.767-.599c-6.526-5.104-15.953-3.952-21.057 2.574-5.104 6.525-3.951 15.953 2.574 21.057l.81.632a14.93 14.93 0 009.209 3.169c4.465 0 8.885-1.985 11.842-5.781 5.093-6.535 3.923-15.96-2.611-21.052z"/></svg>