<svg xmlns="http://www.w3.org/2000/svg" viewBox="0 0 512 512" width="40" height="40" fill="#21e6d1"><path d="M261.013 196.267c-32.939 0-59.733 26.795-59.733 59.733 0 32.93 26.795 59.733 59.733 59.733 32.93 0 59.733-26.803 59.733-59.733.001-32.939-26.802-59.733-59.733-59.733zm0 102.4c-23.526 0-42.667-19.14-42.667-42.667 0-23.526 19.14-42.667 42.667-42.667 23.518 0 42.667 19.14 42.667 42.667 0 23.526-19.14 42.667-42.667 42.667z"/><path d="M337.02 67.917l-15.479 7.177c21.188 45.747 33.34 111.676 33.34 180.907 0 129.519-42.982 238.933-93.867 238.933-50.876 0-93.867-109.414-93.867-238.933S210.129 17.067 260.51 17.058a49.937 49.937 0 0136.437 19.166l13.466-10.487C298.569 10.53 280.751 1.152 261.013 0 198.805 0 150.08 112.452 150.08 256s48.725 256 110.933 256 110.933-112.452 110.933-256c.001-72.678-12.398-139.469-34.926-188.083z"/><path d="M482.675 128c-15.505-26.871-53.649-37.743-107.46-30.626-51.209 6.776-111.462 28.996-169.677 62.575-62.532 36.096-115.78 81.775-146.099 125.312l14.012 9.754c28.937-41.549 80.188-85.393 140.621-120.277 56.32-32.486 114.347-53.948 163.388-60.442 45.815-6.05 78.788 2.039 90.436 22.238C493.3 180.6 420.05 272.53 307.947 337.272c-56.294 32.521-114.313 53.99-163.379 60.476-45.807 6.05-78.788-2.065-90.223-21.879a48.868 48.868 0 01-1.963-39.953l-15.889-6.221c-6.852 17.502-5.888 37.154 2.859 54.306 12.407 21.513 39.322 32.785 77.158 32.785 9.429-.009 19.55-.708 30.285-2.133 51.234-6.767 111.488-29.005 169.677-62.609C440.734 280.286 513.745 181.871 482.675 128z"/><path d="M455.522 275.601c-31.462-40.969-80.845-82.039-139.042-115.652C192.218 88.192 70.498 74.155 39.351 128c-15.539 26.863-5.905 65.365 27.153 108.399 31.462 40.969 80.845 82.039 139.042 115.652 63.01 36.429 129.63 59.75 182.784 64.009l1.357-17.024c-50.714-4.053-114.722-26.573-175.616-61.773-56.311-32.521-103.91-72.038-134.042-111.266-28.151-36.651-37.598-69.257-25.907-89.464 25.472-44.023 141.705-26.547 253.824 38.195 56.311 32.521 103.91 72.038 134.042 111.275 28.151 36.651 37.598 69.256 26.112 89.148-6.69 10.47-17.493 17.963-29.662 20.548l3.55 16.7c16.614-3.533 31.369-13.764 40.687-28.39 15.539-26.872 5.897-65.374-27.153-108.408zM320.747 17.067c-18.825 0-34.133 15.309-34.133 34.133s15.309 34.133 34.133 34.133c18.825 0 34.133-15.309 34.133-34.133s-15.309-34.133-34.133-34.133zm0 51.2c-9.412 0-17.067-7.654-17.067-17.067 0-9.412 7.654-17.067 17.067-17.067 9.404 0 17.067 7.654 17.067 17.067-.001 9.412-7.655 17.067-17.067 17.067zM56.213 273.067c-18.825 0-34.133 15.309-34.133 34.133s15.309 34.133 34.133 34.133c18.816 0 34.133-15.309 34.133-34.133s-15.308-34.133-34.133-34.133zm0 51.2c-9.412 0-17.067-7.654-17.067-17.067s7.654-17.067 17.067-17.067c9.412 0 17.067 7.654 17.067 17.067s-7.654 17.067-17.067 17.067z"/><path d="M414.613 375.467c-18.825 0-34.133 15.309-34.133 34.133 0 18.825 15.309 34.133 34.133 34.133s34.133-15.309 34.133-34.133c.001-18.825-15.308-34.133-34.133-34.133zm0 51.2c-9.412 0-17.067-7.654-17.067-17.067 0-9.412 7.654-17.067 17.067-17.067 9.404 0 17.067 7.654 17.067 17.067 0 9.412-7.654 17.067-17.067 17.067z"/></svg>