<svg height="52" width="52"  viewBox="0 0 512 512" xmlns="http://www.w3.org/2000/svg"><path d="M129.879 252.333c-79.368 0-124.516-91.463-75.604-153.968C101.133 38.486 174.072 0 256 0c139.13 0 252.336 110.988 255.913 249.255.044 1.688-1.327 3.078-3.016 3.078z" fill="#40c1fa"/><path d="M480.754 256c0 124.128-100.626 224.754-224.754 224.754S31.246 380.128 31.246 256 131.872 31.246 256 31.246 480.754 131.872 480.754 256z" fill="#72d1fb"/><path d="M188.277 141.167h-70.135c-8.284 0-15-6.716-15-15 0-8.284 6.716-15 15-15h70.135c8.284 0 15 6.716 15 15 0 8.284-6.715 15-15 15zm15-81c0-8.284-6.716-15-15-15H168.21c-8.284 0-15 6.716-15 15 0 8.284 6.716 15 15 15h20.067c8.285 0 15-6.716 15-15zM463.351 135c0-8.284-6.716-15-15-15h-20.067c-8.284 0-15 6.716-15 15 0 8.284 6.716 15 15 15h20.067c8.284 0 15-6.716 15-15z" fill="#b4e7fd"/><path d="M341.402 76.031c-1.8 11.19 5.628 21.782 16.761 23.903 4.914.936 6.771 6.994 3.225 10.523-8.033 7.995-8.25 20.93-.49 29.19 3.425 3.646 1.367 9.638-3.576 10.409-11.198 1.746-18.977 12.083-17.554 23.327.628 4.963-4.56 8.601-9.012 6.319-10.086-5.169-22.455-1.379-27.913 8.554-2.409 4.384-8.744 4.278-11.005-.185-5.121-10.111-17.356-14.314-27.61-9.486-4.526 2.131-9.589-1.679-8.795-6.618 1.8-11.19-5.628-21.782-16.761-23.903-4.914-.936-6.771-6.994-3.225-10.523 8.033-7.995 8.25-20.93.49-29.19-3.425-3.646-1.367-9.638 3.576-10.409 11.198-1.746 18.977-12.083 17.554-23.327-.628-4.963 4.56-8.601 9.012-6.319 10.086 5.169 22.455 1.379 27.913-8.554 2.409-4.384 8.744-4.278 11.005.185 5.121 10.111 17.356 14.314 27.61 9.486 4.526-2.131 9.589 1.679 8.795 6.618z" fill="#ffde91"/><path d="M335.37 124c0 20.408-16.544 36.952-36.952 36.952S261.466 144.408 261.466 124s16.544-36.952 36.952-36.952S335.37 103.592 335.37 124z" fill="#ffc14f"/><path d="M320.59 124c0 12.245-9.926 22.171-22.171 22.171s-22.171-9.926-22.171-22.171 9.926-22.171 22.171-22.171c12.244 0 22.171 9.926 22.171 22.171z" fill="#ffa90b"/><path d="M183.388 190c23.963 0 43.388 19.426 43.388 43.388s-19.426 43.388-43.388 43.388S140 257.351 140 233.388 159.426 190 183.388 190z" fill="#489160"/><path d="M336.777 196.612c0 23.962-19.426 43.388-43.388 43.388-17.992 0-33.425-10.951-40-26.551-6.575 15.6-22.008 26.551-40 26.551C189.426 240 170 220.574 170 196.612c0-23.908 19.337-43.299 43.224-43.387.089-18.365 15.003-33.225 33.388-33.225 18.44 0 33.388 14.948 33.388 33.388 0 .658-.02 1.311-.057 1.959a43.364 43.364 0 0113.446-2.124c23.962 0 43.388 19.426 43.388 43.389z" fill="#6dc54a"/><path d="M180 183.388c0 29.486-23.903 53.389-53.388 53.389-29.486 0-53.388-23.903-53.388-53.389 0-3.77.391-7.449 1.134-10.998C59.934 165.339 50 150.524 50 133.388 50 109.426 69.426 90 93.388 90c23.146 0 42.057 18.124 43.32 40.954 24.658 4.719 43.292 26.4 43.292 52.434z" fill="#489160"/><path d="M483.258 270c15.799 0 27.691 14.263 25.005 29.832C487.471 420.334 382.441 512 256 512 138.981 512 40.3 433.486 9.763 326.263 1.725 298.04 23.12 270 52.465 270z" fill="#82cd64"/><path d="M303.938 507.519A257.445 257.445 0 01256 512C138.981 512 40.3 433.485 9.763 326.263 1.725 298.04 23.12 270 52.465 270h95.874c-29.345 0-50.74 28.04-42.702 56.263 26.261 92.21 102.921 163.188 198.301 181.256z" fill="#6dc54a"/><path d="M210 438.5a7.5 7.5 0 01-7.5 7.5h-45a7.5 7.5 0 010-15h45a7.5 7.5 0 017.5 7.5zm99.943 25a7.5 7.5 0 01-7.5 7.5h-45a7.5 7.5 0 010-15h45a7.5 7.5 0 017.5 7.5zm98.536-17.5a7.5 7.5 0 00-7.5-7.5h-19.925a7.5 7.5 0 000 15h19.925a7.5 7.5 0 007.5-7.5zm-61.585-22.5a7.5 7.5 0 01-7.5 7.5h-45a7.5 7.5 0 010-15h45a7.5 7.5 0 017.5 7.5zm117.239-69.329a7.5 7.5 0 00-7.5-7.5h-19.925a7.5 7.5 0 000 15h19.925a7.5 7.5 0 007.5-7.5zm-34.925-26.922a7.5 7.5 0 01-7.5 7.5h-45a7.5 7.5 0 010-15h45a7.5 7.5 0 017.5 7.5z" fill="#6dc54a"/><path d="M230 326.777h-91S2.79 297.036 1.253 281.489A258.986 258.986 0 010 256c0-61.003 21.337-117.022 56.955-161.001z" fill="#ffc14f"/><path d="M26.325 296.213c-14.561-5.364-24.66-10.555-25.072-14.725A258.965 258.965 0 010 256c0-61.003 21.337-117.022 56.955-161.001l20.993 28.118c-31.899 50.162-50.71 109.463-51.623 173.096z" fill="#e4ab45"/><path d="M65.243 227.986L139 326.777H9.91a254.91 254.91 0 01-8.656-45.282l39.95-53.51c5.999-8.034 18.04-8.034 24.039.001z" fill="#7b5341"/><path d="M53.794 251.295c-16.046 21.492-21.371 49.251-14.017 75.044l.125.438H9.91a254.91 254.91 0 01-8.656-45.282l39.95-53.51c5.999-8.035 18.04-8.035 24.039 0l2.977 3.987z" fill="#634539"/><path d="M373.223 63.223l138.682 185.752c.063 2.333.095 4.675.095 7.024 0 15.003-1.291 29.705-3.767 44H459l-12.909-3.58A241.122 241.122 0 00305.5 300H196.447z" fill="#2476ed"/><path d="M373.223 90a7.5 7.5 0 01-7.5-7.5v-25a7.5 7.5 0 0115 0v25a7.5 7.5 0 01-7.5 7.5z" fill="#0956c6"/><path d="M287.447 300l73.757-98.791c5.999-8.035 18.04-8.035 24.039 0L459 300z" fill="#634539"/><path d="M365.505 239.84l24.29-32.535L459 300h-63.334c-30.98 0-48.695-35.335-30.161-60.16z" fill="#7b5341"/><path d="M50 400l176.777-236.777 166.137 222.526c4.39 5.88.194 14.251-7.145 14.251h-73.216l-7.218-3.913c-49.004-26.565-108.113-26.565-157.117 0L141 400z" fill="#f44545"/><path d="M246.527 189.677L89.5 400H67.154c-7.079 0-11.127-8.074-6.892-13.746l166.514-223.031z" fill="#d63030"/><path d="M234.277 157.5v25a7.5 7.5 0 01-15 0v-25a7.5 7.5 0 0115 0z" fill="#af2727"/><path d="M141 400l73.757-98.791c5.999-8.035 18.04-8.035 24.039 0L312.553 400z" fill="#634539"/><path d="M222.001 337.971l22.121-29.629L312.553 400H253.1c-31.942 0-50.209-36.433-31.099-62.029z" fill="#7b5341"/><path d="M430 392.5a7.5 7.5 0 01-7.5 7.5h-45a7.5 7.5 0 010-15h45a7.5 7.5 0 017.5 7.5zM72.5 385H34.83a256.138 256.138 0 009.48 15H72.5a7.5 7.5 0 000-15z" fill="#ffc14f"/><g fill="#82cd64"><path d="M230.481 390.125l-17.678 17.678a7.5 7.5 0 01-10.303.287 7.5 7.5 0 01-12.5-5.59v-35a7.5 7.5 0 0115 0v26.894l14.874-14.875a7.5 7.5 0 0110.607 10.606zM477.803 283.055L455.858 305l1.945 1.945a7.5 7.5 0 01-10.607 10.606l-24.749-24.749a7.5 7.5 0 0110.607-10.606l12.197 12.197 21.945-21.946a7.5 7.5 0 1110.607 10.608z"/></g></svg>